<svg xmlns="http://www.w3.org/2000/svg" viewBox="-10490 -11022.927 30.881 35.362"><defs><style>.a{fill:#fff;}</style></defs><path class="a" d="M15.444,35.437h0a.936.936,0,0,1-.489-.136L.476,26.942A.941.941,0,0,1,0,26.119V9.388a.941.941,0,0,1,.476-.823L14.961.2a.968.968,0,0,1,.953,0L30.4,8.566a.949.949,0,0,1,0,1.646L16.39,18.3v6.169l13.055-7.542a.968.968,0,0,1,.953,0,.941.941,0,0,1,.476.823v8.371a.941.941,0,0,1-.476.823L15.932,35.3a.936.936,0,0,1-.489.136ZM1.906,25.568,14.5,32.838V26.67L1.906,19.4ZM16.4,26.67v6.169l12.579-7.27V19.4ZM1.906,17.2l12.585,7.27V18.3L1.906,11.034Zm.947-7.815,12.585,7.264L28.022,9.388,15.437,2.118Z" transform="translate(-10490 -11023.002)"/></svg>