<svg xmlns="http://www.w3.org/2000/svg" viewBox="0 0 132.406 449.117"><defs><style>.a{fill:#a7a7a7;}</style></defs><g transform="translate(103.406 1722.117) rotate(180)"><circle class="a" cx="0.998" cy="0.998" r="0.998" transform="translate(-10.37 1273)"/><circle class="a" cx="0.998" cy="0.998" r="0.998" transform="translate(8.26 1273)"/><circle class="a" cx="0.998" cy="0.998" r="0.998" transform="translate(26.89 1273)"/><circle class="a" cx="0.998" cy="0.998" r="0.998" transform="translate(45.52 1273)"/><circle class="a" cx="0.998" cy="0.998" r="0.998" transform="translate(64.15 1273)"/><circle class="a" cx="0.998" cy="0.998" r="0.998" transform="translate(82.78 1273)"/><circle class="a" cx="0.998" cy="0.998" r="0.998" transform="translate(101.41 1273)"/><circle class="a" cx="0.998" cy="0.998" r="0.998" transform="translate(-10.37 1291.63)"/><circle class="a" cx="0.998" cy="0.998" r="0.998" transform="translate(8.26 1291.63)"/><circle class="a" cx="0.998" cy="0.998" r="0.998" transform="translate(26.89 1291.63)"/><circle class="a" cx="0.998" cy="0.998" r="0.998" transform="translate(45.52 1291.63)"/><circle class="a" cx="0.998" cy="0.998" r="0.998" transform="translate(64.15 1291.63)"/><circle class="a" cx="0.998" cy="0.998" r="0.998" transform="translate(82.78 1291.63)"/><circle class="a" cx="0.998" cy="0.998" r="0.998" transform="translate(101.41 1291.63)"/><circle class="a" cx="0.998" cy="0.998" r="0.998" transform="translate(-10.37 1310.26)"/><circle class="a" cx="0.998" cy="0.998" r="0.998" transform="translate(8.26 1310.26)"/><circle class="a" cx="0.998" cy="0.998" r="0.998" transform="translate(26.89 1310.26)"/><circle class="a" cx="0.998" cy="0.998" r="0.998" transform="translate(45.52 1310.26)"/><circle class="a" cx="0.998" cy="0.998" r="0.998" transform="translate(64.15 1310.26)"/><circle class="a" cx="0.998" cy="0.998" r="0.998" transform="translate(82.78 1310.26)"/><circle class="a" cx="0.998" cy="0.998" r="0.998" transform="translate(101.41 1310.26)"/><circle class="a" cx="0.998" cy="0.998" r="0.998" transform="translate(-10.37 1328.89)"/><circle class="a" cx="0.998" cy="0.998" r="0.998" transform="translate(8.26 1328.89)"/><circle class="a" cx="0.998" cy="0.998" r="0.998" transform="translate(26.89 1328.89)"/><circle class="a" cx="0.998" cy="0.998" r="0.998" transform="translate(45.52 1328.89)"/><circle class="a" cx="0.998" cy="0.998" r="0.998" transform="translate(64.15 1328.89)"/><circle class="a" cx="0.998" cy="0.998" r="0.998" transform="translate(82.78 1328.89)"/><circle class="a" cx="0.998" cy="0.998" r="0.998" transform="translate(101.41 1328.89)"/><circle class="a" cx="0.998" cy="0.998" r="0.998" transform="translate(-10.37 1347.52)"/><circle class="a" cx="0.998" cy="0.998" r="0.998" transform="translate(8.26 1347.52)"/><circle class="a" cx="0.998" cy="0.998" r="0.998" transform="translate(26.89 1347.52)"/><circle class="a" cx="0.998" cy="0.998" r="0.998" transform="translate(45.52 1347.52)"/><circle class="a" cx="0.998" cy="0.998" r="0.998" transform="translate(64.15 1347.52)"/><circle class="a" cx="0.998" cy="0.998" r="0.998" transform="translate(82.78 1347.52)"/><circle class="a" cx="0.998" cy="0.998" r="0.998" transform="translate(101.41 1347.52)"/><circle class="a" cx="0.998" cy="0.998" r="0.998" transform="translate(-10.37 1366.15)"/><circle class="a" cx="0.998" cy="0.998" r="0.998" transform="translate(8.26 1366.15)"/><circle class="a" cx="0.998" cy="0.998" r="0.998" transform="translate(26.89 1366.15)"/><circle class="a" cx="0.998" cy="0.998" r="0.998" transform="translate(45.52 1366.15)"/><circle class="a" cx="0.998" cy="0.998" r="0.998" transform="translate(64.15 1366.15)"/><circle class="a" cx="0.998" cy="0.998" r="0.998" transform="translate(82.78 1366.15)"/><circle class="a" cx="0.998" cy="0.998" r="0.998" transform="translate(101.41 1366.15)"/><circle class="a" cx="0.998" cy="0.998" r="0.998" transform="translate(-10.37 1384.78)"/><circle class="a" cx="0.998" cy="0.998" r="0.998" transform="translate(8.26 1384.78)"/><circle class="a" cx="0.998" cy="0.998" r="0.998" transform="translate(26.89 1384.78)"/><circle class="a" cx="0.998" cy="0.998" r="0.998" transform="translate(45.52 1384.78)"/><circle class="a" cx="0.998" cy="0.998" r="0.998" transform="translate(64.15 1384.78)"/><circle class="a" cx="0.998" cy="0.998" r="0.998" transform="translate(82.78 1384.78)"/><circle class="a" cx="0.998" cy="0.998" r="0.998" transform="translate(101.41 1384.78)"/><circle class="a" cx="0.998" cy="0.998" r="0.998" transform="translate(-10.37 1403.41)"/><circle class="a" cx="0.998" cy="0.998" r="0.998" transform="translate(8.26 1403.41)"/><circle class="a" cx="0.998" cy="0.998" r="0.998" transform="translate(26.89 1403.41)"/><circle class="a" cx="0.998" cy="0.998" r="0.998" transform="translate(45.52 1403.41)"/><circle class="a" cx="0.998" cy="0.998" r="0.998" transform="translate(64.15 1403.41)"/><circle class="a" cx="0.998" cy="0.998" r="0.998" transform="translate(82.78 1403.41)"/><circle class="a" cx="0.998" cy="0.998" r="0.998" transform="translate(101.41 1403.41)"/><circle class="a" cx="0.998" cy="0.998" r="0.998" transform="translate(-10.37 1422.04)"/><circle class="a" cx="0.998" cy="0.998" r="0.998" transform="translate(8.26 1422.04)"/><circle class="a" cx="0.998" cy="0.998" r="0.998" transform="translate(26.89 1422.04)"/><circle class="a" cx="0.998" cy="0.998" r="0.998" transform="translate(45.52 1422.04)"/><circle class="a" cx="0.998" cy="0.998" r="0.998" transform="translate(64.15 1422.04)"/><circle class="a" cx="0.998" cy="0.998" r="0.998" transform="translate(82.78 1422.04)"/><circle class="a" cx="0.998" cy="0.998" r="0.998" transform="translate(101.41 1422.04)"/><circle class="a" cx="0.998" cy="0.998" r="0.998" transform="translate(-10.37 1440.67)"/><circle class="a" cx="0.998" cy="0.998" r="0.998" transform="translate(8.26 1440.67)"/><circle class="a" cx="0.998" cy="0.998" r="0.998" transform="translate(26.89 1440.67)"/><circle class="a" cx="0.998" cy="0.998" r="0.998" transform="translate(45.52 1440.67)"/><circle class="a" cx="0.998" cy="0.998" r="0.998" transform="translate(64.15 1440.67)"/><circle class="a" cx="0.998" cy="0.998" r="0.998" transform="translate(82.78 1440.67)"/><circle class="a" cx="0.998" cy="0.998" r="0.998" transform="translate(101.41 1440.67)"/><circle class="a" cx="0.998" cy="0.998" r="0.998" transform="translate(-10.37 1459.3)"/><circle class="a" cx="0.998" cy="0.998" r="0.998" transform="translate(8.26 1459.3)"/><circle class="a" cx="0.998" cy="0.998" r="0.998" transform="translate(26.89 1459.3)"/><circle class="a" cx="0.998" cy="0.998" r="0.998" transform="translate(45.52 1459.3)"/><circle class="a" cx="0.998" cy="0.998" r="0.998" transform="translate(64.15 1459.3)"/><circle class="a" cx="0.998" cy="0.998" r="0.998" transform="translate(82.78 1459.3)"/><circle class="a" cx="0.998" cy="0.998" r="0.998" transform="translate(101.41 1459.3)"/><circle class="a" cx="0.998" cy="0.998" r="0.998" transform="translate(-10.37 1477.93)"/><circle class="a" cx="0.998" cy="0.998" r="0.998" transform="translate(8.26 1477.93)"/><circle class="a" cx="0.998" cy="0.998" r="0.998" transform="translate(26.89 1477.93)"/><circle class="a" cx="0.998" cy="0.998" r="0.998" transform="translate(45.52 1477.93)"/><circle class="a" cx="0.998" cy="0.998" r="0.998" transform="translate(64.15 1477.93)"/><circle class="a" cx="0.998" cy="0.998" r="0.998" transform="translate(82.78 1477.93)"/><circle class="a" cx="0.998" cy="0.998" r="0.998" transform="translate(101.41 1477.93)"/><circle class="a" cx="0.998" cy="0.998" r="0.998" transform="translate(-10.37 1496.56)"/><circle class="a" cx="0.998" cy="0.998" r="0.998" transform="translate(8.26 1496.56)"/><circle class="a" cx="0.998" cy="0.998" r="0.998" transform="translate(26.89 1496.56)"/><circle class="a" cx="0.998" cy="0.998" r="0.998" transform="translate(45.52 1496.56)"/><circle class="a" cx="0.998" cy="0.998" r="0.998" transform="translate(64.15 1496.56)"/><circle class="a" cx="0.998" cy="0.998" r="0.998" transform="translate(82.78 1496.56)"/><circle class="a" cx="0.998" cy="0.998" r="0.998" transform="translate(101.41 1496.56)"/><circle class="a" cx="0.998" cy="0.998" r="0.998" transform="translate(-10.37 1515.19)"/><circle class="a" cx="0.998" cy="0.998" r="0.998" transform="translate(8.26 1515.19)"/><circle class="a" cx="0.998" cy="0.998" r="0.998" transform="translate(26.89 1515.19)"/><circle class="a" cx="0.998" cy="0.998" r="0.998" transform="translate(45.52 1515.19)"/><circle class="a" cx="0.998" cy="0.998" r="0.998" transform="translate(64.15 1515.19)"/><circle class="a" cx="0.998" cy="0.998" r="0.998" transform="translate(82.78 1515.19)"/><circle class="a" cx="0.998" cy="0.998" r="0.998" transform="translate(101.41 1515.19)"/><circle class="a" cx="0.998" cy="0.998" r="0.998" transform="translate(-10.37 1533.82)"/><circle class="a" cx="0.998" cy="0.998" r="0.998" transform="translate(8.26 1533.82)"/><circle class="a" cx="0.998" cy="0.998" r="0.998" transform="translate(26.89 1533.82)"/><circle class="a" cx="0.998" cy="0.998" r="0.998" transform="translate(45.52 1533.82)"/><circle class="a" cx="0.998" cy="0.998" r="0.998" transform="translate(64.15 1533.82)"/><circle class="a" cx="0.998" cy="0.998" r="0.998" transform="translate(82.78 1533.82)"/><circle class="a" cx="0.998" cy="0.998" r="0.998" transform="translate(101.41 1533.82)"/><circle class="a" cx="0.998" cy="0.998" r="0.998" transform="translate(-10.37 1552.45)"/><circle class="a" cx="0.998" cy="0.998" r="0.998" transform="translate(8.26 1552.45)"/><circle class="a" cx="0.998" cy="0.998" r="0.998" transform="translate(26.89 1552.45)"/><circle class="a" cx="0.998" cy="0.998" r="0.998" transform="translate(45.52 1552.45)"/><circle class="a" cx="0.998" cy="0.998" r="0.998" transform="translate(64.15 1552.45)"/><circle class="a" cx="0.998" cy="0.998" r="0.998" transform="translate(82.78 1552.45)"/><circle class="a" cx="0.998" cy="0.998" r="0.998" transform="translate(101.41 1552.45)"/><circle class="a" cx="0.998" cy="0.998" r="0.998" transform="translate(-10.37 1571.08)"/><circle class="a" cx="0.998" cy="0.998" r="0.998" transform="translate(8.26 1571.08)"/><circle class="a" cx="0.998" cy="0.998" r="0.998" transform="translate(26.89 1571.08)"/><circle class="a" cx="0.998" cy="0.998" r="0.998" transform="translate(45.52 1571.08)"/><circle class="a" cx="0.998" cy="0.998" r="0.998" transform="translate(64.15 1571.08)"/><circle class="a" cx="0.998" cy="0.998" r="0.998" transform="translate(82.78 1571.08)"/><circle class="a" cx="0.998" cy="0.998" r="0.998" transform="translate(101.41 1571.08)"/><circle class="a" cx="0.998" cy="0.998" r="0.998" transform="translate(-10.37 1589.71)"/><circle class="a" cx="0.998" cy="0.998" r="0.998" transform="translate(8.26 1589.71)"/><circle class="a" cx="0.998" cy="0.998" r="0.998" transform="translate(26.89 1589.71)"/><circle class="a" cx="0.998" cy="0.998" r="0.998" transform="translate(45.52 1589.71)"/><circle class="a" cx="0.998" cy="0.998" r="0.998" transform="translate(64.15 1589.71)"/><circle class="a" cx="0.998" cy="0.998" r="0.998" transform="translate(82.78 1589.71)"/><circle class="a" cx="0.998" cy="0.998" r="0.998" transform="translate(101.41 1589.71)"/><circle class="a" cx="0.998" cy="0.998" r="0.998" transform="translate(-10.37 1608.34)"/><circle class="a" cx="0.998" cy="0.998" r="0.998" transform="translate(8.26 1608.34)"/><circle class="a" cx="0.998" cy="0.998" r="0.998" transform="translate(26.89 1608.34)"/><circle class="a" cx="0.998" cy="0.998" r="0.998" transform="translate(45.52 1608.34)"/><circle class="a" cx="0.998" cy="0.998" r="0.998" transform="translate(64.15 1608.34)"/><circle class="a" cx="0.998" cy="0.998" r="0.998" transform="translate(82.78 1608.34)"/><circle class="a" cx="0.998" cy="0.998" r="0.998" transform="translate(101.41 1608.34)"/><circle class="a" cx="0.998" cy="0.998" r="0.998" transform="translate(-10.37 1626.97)"/><circle class="a" cx="0.998" cy="0.998" r="0.998" transform="translate(8.26 1626.97)"/><circle class="a" cx="0.998" cy="0.998" r="0.998" transform="translate(26.89 1626.97)"/><circle class="a" cx="0.998" cy="0.998" r="0.998" transform="translate(45.52 1626.97)"/><circle class="a" cx="0.998" cy="0.998" r="0.998" transform="translate(64.15 1626.97)"/><circle class="a" cx="0.998" cy="0.998" r="0.998" transform="translate(82.78 1626.97)"/><circle class="a" cx="0.998" cy="0.998" r="0.998" transform="translate(101.41 1626.97)"/><circle class="a" cx="0.998" cy="0.998" r="0.998" transform="translate(-10.37 1645.6)"/><circle class="a" cx="0.998" cy="0.998" r="0.998" transform="translate(8.26 1645.6)"/><circle class="a" cx="0.998" cy="0.998" r="0.998" transform="translate(26.89 1645.6)"/><circle class="a" cx="0.998" cy="0.998" r="0.998" transform="translate(45.52 1645.6)"/><circle class="a" cx="0.998" cy="0.998" r="0.998" transform="translate(64.15 1645.6)"/><circle class="a" cx="0.998" cy="0.998" r="0.998" transform="translate(82.78 1645.6)"/><circle class="a" cx="0.998" cy="0.998" r="0.998" transform="translate(101.41 1645.6)"/><circle class="a" cx="0.998" cy="0.998" r="0.998" transform="translate(-10.37 1664.23)"/><circle class="a" cx="0.998" cy="0.998" r="0.998" transform="translate(8.26 1664.23)"/><circle class="a" cx="0.998" cy="0.998" r="0.998" transform="translate(26.89 1664.23)"/><circle class="a" cx="0.998" cy="0.998" r="0.998" transform="translate(45.52 1664.23)"/><circle class="a" cx="0.998" cy="0.998" r="0.998" transform="translate(64.15 1664.23)"/><circle class="a" cx="0.998" cy="0.998" r="0.998" transform="translate(82.78 1664.23)"/><circle class="a" cx="0.998" cy="0.998" r="0.998" transform="translate(101.41 1664.23)"/><circle class="a" cx="0.998" cy="0.998" r="0.998" transform="translate(-10.37 1682.86)"/><circle class="a" cx="0.998" cy="0.998" r="0.998" transform="translate(8.26 1682.86)"/><circle class="a" cx="0.998" cy="0.998" r="0.998" transform="translate(26.89 1682.86)"/><circle class="a" cx="0.998" cy="0.998" r="0.998" transform="translate(45.52 1682.86)"/><circle class="a" cx="0.998" cy="0.998" r="0.998" transform="translate(64.15 1682.86)"/><circle class="a" cx="0.998" cy="0.998" r="0.998" transform="translate(82.78 1682.86)"/><circle class="a" cx="0.998" cy="0.998" r="0.998" transform="translate(101.41 1682.86)"/><circle class="a" cx="0.998" cy="0.998" r="0.998" transform="translate(-10.37 1701.491)"/><circle class="a" cx="0.998" cy="0.998" r="0.998" transform="translate(8.26 1701.491)"/><circle class="a" cx="0.998" cy="0.998" r="0.998" transform="translate(26.89 1701.491)"/><circle class="a" cx="0.998" cy="0.998" r="0.998" transform="translate(45.52 1701.491)"/><circle class="a" cx="0.998" cy="0.998" r="0.998" transform="translate(64.15 1701.491)"/><circle class="a" cx="0.998" cy="0.998" r="0.998" transform="translate(82.78 1701.491)"/><circle class="a" cx="0.998" cy="0.998" r="0.998" transform="translate(101.41 1701.491)"/><circle class="a" cx="0.998" cy="0.998" r="0.998" transform="translate(-10.37 1720.12)"/><circle class="a" cx="0.998" cy="0.998" r="0.998" transform="translate(8.26 1720.12)"/><circle class="a" cx="0.998" cy="0.998" r="0.998" transform="translate(26.89 1720.12)"/><circle class="a" cx="0.998" cy="0.998" r="0.998" transform="translate(45.52 1720.12)"/><circle class="a" cx="0.998" cy="0.998" r="0.998" transform="translate(64.15 1720.12)"/><circle class="a" cx="0.998" cy="0.998" r="0.998" transform="translate(82.78 1720.12)"/><circle class="a" cx="0.998" cy="0.998" r="0.998" transform="translate(101.41 1720.12)"/><circle class="a" cx="0.998" cy="0.998" r="0.998" transform="translate(-29 1273)"/><circle class="a" cx="0.998" cy="0.998" r="0.998" transform="translate(-29 1291.63)"/><circle class="a" cx="0.998" cy="0.998" r="0.998" transform="translate(-29 1310.26)"/><circle class="a" cx="0.998" cy="0.998" r="0.998" transform="translate(-29 1328.89)"/><circle class="a" cx="0.998" cy="0.998" r="0.998" transform="translate(-29 1347.52)"/><circle class="a" cx="0.998" cy="0.998" r="0.998" transform="translate(-29 1366.15)"/><circle class="a" cx="0.998" cy="0.998" r="0.998" transform="translate(-29 1384.78)"/><circle class="a" cx="0.998" cy="0.998" r="0.998" transform="translate(-29 1403.41)"/><circle class="a" cx="0.998" cy="0.998" r="0.998" transform="translate(-29 1422.04)"/><circle class="a" cx="0.998" cy="0.998" r="0.998" transform="translate(-29 1440.67)"/><circle class="a" cx="0.998" cy="0.998" r="0.998" transform="translate(-29 1459.3)"/><circle class="a" cx="0.998" cy="0.998" r="0.998" transform="translate(-29 1477.93)"/><circle class="a" cx="0.998" cy="0.998" r="0.998" transform="translate(-29 1496.56)"/><circle class="a" cx="0.998" cy="0.998" r="0.998" transform="translate(-29 1515.19)"/><circle class="a" cx="0.998" cy="0.998" r="0.998" transform="translate(-29 1533.82)"/><circle class="a" cx="0.998" cy="0.998" r="0.998" transform="translate(-29 1552.45)"/><circle class="a" cx="0.998" cy="0.998" r="0.998" transform="translate(-29 1571.08)"/><circle class="a" cx="0.998" cy="0.998" r="0.998" transform="translate(-29 1589.71)"/><circle class="a" cx="0.998" cy="0.998" r="0.998" transform="translate(-29 1608.34)"/><circle class="a" cx="0.998" cy="0.998" r="0.998" transform="translate(-29 1626.97)"/><circle class="a" cx="0.998" cy="0.998" r="0.998" transform="translate(-29 1645.6)"/><circle class="a" cx="0.998" cy="0.998" r="0.998" transform="translate(-29 1664.23)"/><circle class="a" cx="0.998" cy="0.998" r="0.998" transform="translate(-29 1682.86)"/><circle class="a" cx="0.998" cy="0.998" r="0.998" transform="translate(-29 1701.491)"/><circle class="a" cx="0.998" cy="0.998" r="0.998" transform="translate(-29 1720.12)"/></g></svg>